<?xml version="1.0" standalone="no"?><!DOCTYPE svg PUBLIC "-//W3C//DTD SVG 1.1//EN" "http://www.w3.org/Graphics/SVG/1.1/DTD/svg11.dtd"><svg t="1551177922200" class="icon" style="" viewBox="0 0 1534 1024" version="1.1" xmlns="http://www.w3.org/2000/svg" p-id="4413" xmlns:xlink="http://www.w3.org/1999/xlink" width="95.875" height="64"><defs><style type="text/css"></style></defs><path d="M396.8 861.696h670.208c5.632 0 10.24-4.608 10.24-10.24s-4.608-10.24-10.24-10.24H396.8c-5.632 0-10.24 4.608-10.24 10.24s4.608 10.24 10.24 10.24zM1451.52 311.296c0.512 0.512 2.048 0.512 2.56 0l17.408-17.408 17.408 17.408c0.512 0.512 2.048 0.512 2.56 0s0.512-2.048 0-2.56l-17.408-17.408 17.408-17.408c0.512-0.512 0.512-2.048 0-2.56s-2.048-0.512-2.56 0l-17.408 17.408L1454.08 271.36c-0.512-0.512-2.048-0.512-2.56 0s-0.512 2.048 0 2.56l17.408 17.408-17.408 17.408c-0.512 0.512-0.512 2.048 0 2.56zM1103.36 861.696h30.208c5.632 0 10.24-4.608 10.24-10.24s-4.608-10.24-10.24-10.24h-30.208c-5.632 0-10.24 4.608-10.24 10.24s4.608 10.24 10.24 10.24zM1082.88 152.576c13.312 0 24.064-10.752 24.064-24.064s-10.752-24.064-24.064-24.064-24.064 10.752-24.064 24.064 10.752 24.064 24.064 24.064z m0-37.888h1.024c7.168 0 13.312 6.656 12.8 13.824 0 7.168-6.656 13.312-13.824 12.8-7.168 0-12.8-5.632-12.8-12.8-0.512-7.168 5.632-13.312 12.8-13.824zM560.64 56.32h40.448v39.936c0 2.56 2.048 5.12 5.12 5.12 2.56 0 5.12-2.048 5.12-5.12v-40.448h40.448c2.56 0 5.12-2.048 5.12-5.12 0-2.56-2.048-5.12-5.12-5.12h-40.448V5.12c0-2.56-2.048-5.12-5.12-5.12-2.56 0-5.12 2.048-5.12 5.12v40.96h-40.448c-2.56 0-5.12 2.048-5.12 5.12 0 2.56 2.048 5.12 5.12 5.12zM1228.8 434.176l-13.312 13.312-0.512 0.512v0.512l3.584 3.584h0.512l13.824-13.824c0.512-0.512 0.512-0.512 0-1.024l-3.072-3.072c-0.512-0.512-1.024-0.512-1.024 0zM1228.8 408.064c0 0.512 0.512 0.512 0.512 0.512l3.072-3.072c0.512-0.512 0.512-0.512 0-1.024l-13.824-13.824-3.072 3.072c-0.512 0.512-0.512 0.512 0 1.024l13.312 13.312zM1266.176 445.952c2.048 1.536 4.096 3.584 6.144 5.632h0.512l3.584-3.584-13.824-13.824c-0.512-0.512-0.512-0.512-1.024 0l-3.072 3.072c-0.512 0-0.512 0.512-0.512 0.512l8.192 8.192zM1261.568 408.064c0 0.512 0.512 0.512 1.536 0.512l13.312-13.312 0.512-0.512V394.24l-3.584-3.584h-0.512l-13.824 13.824c-0.512 0-0.512 0 0 0.512 0.512 1.024 1.536 2.048 2.56 3.072zM1241.088 400.384h4.096c1.024 0 1.024-0.512 1.024-1.024v-8.192c0-3.072 0-5.632-0.512-8.704 0-0.512 0-0.512-0.512-0.512h-4.096c-0.512 0-0.512 0-0.512 0.512v17.408c0 0.512 0 0.512 0.512 0.512zM1267.712 416.768c-0.512 0-0.512 0 0 0l-0.512 4.608c0 0.512 0 0.512 0.512 0.512h16.896c0.512 0 0.512 0 0.512-0.512v-4.096c0-0.512 0-0.512-0.512-0.512h-16.896zM1241.6 442.368c-0.512 0-0.512 0-0.512 0.512v17.408c0 0.512 0 0.512 0.512 0.512h4.096c0.512 0 0.512 0 0.512-0.512v-17.408c0-0.512 0-0.512-0.512-0.512h-4.096zM1206.784 421.888h17.408c0.512 0 0.512 0 0.512-0.512v-4.096c0-0.512-0.512-0.512-1.024-0.512h-16.896c-0.512 0-0.512 0-0.512 0.512v4.096c0 0.512 0 0.512 0.512 0.512zM994.816 1000.96h-110.592c-5.632 0-10.24 4.608-10.24 10.24s4.608 10.24 10.24 10.24h110.592c5.632 0 10.24-4.608 10.24-10.24s-4.608-10.24-10.24-10.24zM1040.896 1000.96h-15.872c-5.632 0-10.24 4.608-10.24 10.24s4.608 10.24 10.24 10.24h15.872c5.632 0 10.24-4.608 10.24-10.24s-4.608-10.24-10.24-10.24zM1344.512 902.656H590.336c-5.632 0-10.24 4.608-10.24 10.24s4.608 10.24 10.24 10.24h754.176c5.632 0 10.24-4.608 10.24-10.24s-4.608-10.24-10.24-10.24zM1182.72 1000.96h-110.592c-6.144 0-10.24 4.608-10.24 10.24s4.608 10.24 10.24 10.24H1182.72c5.632 0 10.24-4.608 10.24-10.24s-4.608-10.24-10.24-10.24zM1500.16 477.696c-18.432 0-33.28 14.848-33.28 33.28s14.848 33.28 33.28 33.28 33.28-14.848 33.28-33.28-14.848-33.28-33.28-33.28z m0 56.32c-13.312 0-24.064-10.752-23.552-23.552 0-12.8 10.752-23.552 23.552-23.552s23.552 10.24 23.552 23.552c0 12.8-10.24 23.552-23.552 23.552zM1461.248 902.656h-54.272c-5.632 0-10.24 4.608-10.24 10.24s4.608 10.24 10.24 10.24h54.272c5.632 0 10.24-4.608 10.24-10.24s-4.608-10.24-10.24-10.24zM124.416 902.656h-44.544c-5.632 0-10.24 4.608-10.24 10.24s4.608 10.24 10.24 10.24h44.544c5.632 0 10.24-4.608 10.24-10.24s-4.608-10.24-10.24-10.24zM116.736 164.352c-31.232 0-56.32 25.088-56.32 56.32s25.088 56.32 56.32 56.32 56.32-25.088 56.32-56.32-25.088-56.32-56.32-56.32z m0.512 87.04c-16.896 0-30.72-13.312-30.208-30.208 0-16.896 13.312-30.208 30.208-30.208s30.208 13.312 30.208 30.208-13.312 30.208-30.208 30.208zM796.672 1000.96h-174.592c-5.632 0-10.24 4.608-10.24 10.24s4.608 10.24 10.24 10.24h174.592c5.632 0 10.24-4.608 10.24-10.24s-4.608-10.24-10.24-10.24zM91.648 505.344c0-2.048-1.536-3.584-3.584-3.584H49.152v-37.888c0-2.048-1.536-3.584-3.584-3.584s-3.584 1.536-3.584 3.584V501.76H3.584c-2.048 0-3.584 1.536-2.56 3.584 0 2.048 1.536 3.584 3.584 3.584h38.4v38.4c0 2.048 1.536 3.584 3.584 3.584s3.584-1.536 3.584-3.584v-38.4h37.888c2.048 0 3.584-1.536 3.584-3.584zM328.704 861.696h30.208c5.632 0 10.24-4.608 10.24-10.24s-4.608-10.24-10.24-10.24h-30.208c-5.632 0-10.24 4.608-10.24 10.24s4.608 10.24 10.24 10.24zM480.256 902.656H177.152c-5.632 0-10.24 4.608-10.24 10.24s4.608 10.24 10.24 10.24h303.104c5.632 0 10.24-4.608 10.24-10.24s-4.608-10.24-10.24-10.24zM551.936 902.656h-24.064c-5.632 0-10.24 4.608-10.24 10.24s4.608 10.24 10.24 10.24h24.064c5.632 0 10.24-4.608 10.24-10.24s-4.608-10.24-10.24-10.24z" p-id="4414"></path><path d="M556.032 778.24h30.72c2.56 4.608 3.584 9.728 3.584 15.36 0 5.12-1.024 8.192-3.072 10.24s-6.144 3.072-12.288 3.072H451.584c-2.56-6.144-3.584-11.264-3.584-16.896 0-4.096 1.024-7.68 3.072-9.216 2.048-2.048 5.12-3.072 9.728-3.072h32.256c0.512-16.896 1.024-30.72 1.024-40.448h-133.12c-4.096-6.656-6.144-13.312-6.144-20.992 0-6.144 1.536-12.288 4.608-18.944 3.072-6.144 24.064-37.376 61.952-93.184s58.368-84.48 61.44-86.528c2.56-2.048 8.192-3.072 16.384-3.072h31.232c8.704 0 14.848 1.536 18.944 4.096 4.096 3.072 6.144 10.24 6.144 22.016V701.44h27.648c2.56 7.168 3.584 13.824 3.584 20.48 0 5.12-1.024 9.216-2.56 11.264-2.048 2.56-5.632 3.584-11.264 3.584h-16.896c-0.512 19.968 0 33.28 0 41.472z m-62.464-75.776c0-84.992-0.512-127.488-2.048-127.488-1.024 0-25.088 42.496-71.168 127.488h73.216zM1094.656 778.24h30.72c2.56 4.608 3.584 9.728 3.584 15.36 0 5.12-1.024 8.192-3.072 10.24-2.048 2.048-6.144 3.072-12.288 3.072h-123.904c-2.56-6.144-3.584-11.264-3.584-16.896 0-4.096 1.024-7.68 3.072-9.216 2.048-2.048 5.12-3.072 9.728-3.072h32.256c0.512-16.896 1.024-30.72 1.024-40.448h-133.12c-4.096-6.656-6.144-13.312-6.144-20.992 0-6.144 1.536-12.288 4.608-18.944 3.072-6.144 24.064-37.376 61.952-93.184 37.888-55.808 58.368-84.48 61.44-86.528 2.56-2.048 8.192-3.072 16.384-3.072h31.232c8.704 0 14.848 1.536 18.944 4.096 4.096 3.072 6.144 10.24 6.144 22.016V701.44h27.648c2.56 7.168 3.584 13.824 3.584 20.48 0 5.12-1.024 9.216-2.56 11.264-2.048 2.56-5.632 3.584-11.264 3.584h-16.896c0 19.968 0 33.28 0.512 41.472z m-62.464-75.776c0-84.992-0.512-127.488-2.048-127.488-1.024 0-25.088 42.496-71.168 127.488h73.216zM866.304 595.968c-13.824-26.624-34.816-46.08-62.464-59.392-20.48-9.728-41.984-14.848-64.512-14.848-36.352 0-66.56 10.24-90.624 31.232-27.648 23.552-40.96 55.808-40.96 97.28 0 42.496 14.848 76.288 45.056 101.888 25.088 21.504 55.808 32.256 92.16 32.256 32.768 0 61.44-9.728 87.04-28.672 33.28-25.6 49.664-57.856 49.664-97.792 0-22.016-5.12-42.496-15.36-61.952z m-48.64 134.144c-21.504 14.336-45.568 21.504-73.216 21.504-30.208 0-55.808-8.192-77.312-24.064-25.088-18.944-37.888-44.544-37.888-76.288 0-31.232 11.264-55.808 34.304-73.216 20.48-15.872 45.568-23.552 76.288-23.552 18.432 0 36.864 3.584 53.76 11.264 23.552 10.24 40.96 25.088 52.224 45.056 8.704 14.336 12.8 30.208 12.8 46.08 1.024 29.184-13.312 53.76-40.96 73.216z" p-id="4415"></path><path d="M681.472 616.448l6.656 2.048c0.512 0 1.024 0.512 1.024 0.512 0.512 0 0.512-0.512 1.024-1.536v-0.512l-0.512-6.656v-0.512c0-2.048 0.512-3.072 1.024-3.584 0.512-0.512 2.048-0.512 4.608-0.512 2.048 0 3.584 0 4.096 0.512s1.024 1.024 1.024 2.048v9.216c0 1.024 0.512 1.536 1.024 1.536 0 0 0.512 0 1.024-0.512l6.656-2.048c1.536-0.512 2.56-0.512 3.584-0.512 0.512 0 1.024 0 1.536 0.512s1.024 1.024 1.536 2.56c1.024 2.048 1.024 3.584 1.536 4.608 0 1.024-1.536 2.048-4.096 3.072l-6.656 1.536c-1.024 0.512-1.536 0.512-1.536 1.024 0 0 0 0.512 0.512 1.024l4.608 5.12c1.536 1.536 2.048 2.56 2.048 3.584s-1.024 2.048-3.584 3.584c-2.048 1.024-3.584 2.048-4.096 2.048-1.024 0-2.048-1.024-3.584-3.072l-4.096-5.12-1.024-1.024c-0.512 0-0.512 0.512-1.024 1.024l-4.096 5.12c-1.536 2.048-2.56 3.072-3.584 3.072-0.512 0-2.048-0.512-4.096-2.048-2.048-1.536-3.584-2.56-3.584-3.584 0-0.512 0.512-2.048 2.048-3.584l4.096-5.12c0.512-0.512 0.512-1.024 0.512-1.024 0-0.512-0.512-1.024-1.536-1.024l-6.656-1.536c-3.072-0.512-4.096-1.536-4.096-2.56s0.512-3.072 1.536-5.632c0.512-1.536 1.536-2.56 2.56-2.56s2.048 0.512 3.584 0.512zM779.776 616.448l6.656 2.048c0.512 0 1.024 0.512 1.024 0.512 0.512 0 0.512-0.512 1.024-1.536v-0.512l-0.512-6.656v-0.512c0-2.048 0.512-3.072 1.024-3.584 0.512-0.512 2.048-0.512 4.608-0.512 2.048 0 3.584 0 4.096 0.512s1.024 1.024 1.024 2.048v2.56l-0.512 6.656c0 1.024 0.512 1.536 1.024 1.536 0 0 0.512 0 1.024-0.512l6.656-2.048c1.536-0.512 2.56-0.512 3.584-0.512 0.512 0 1.024 0 1.536 0.512s1.024 1.024 1.536 2.56c1.024 2.048 1.024 3.584 1.536 4.608 0 1.024-1.536 2.048-4.096 3.072l-6.656 1.536c-1.024 0.512-1.536 0.512-1.536 1.024 0 0 0 0.512 0.512 1.024l4.608 5.12c1.536 1.536 2.048 2.56 2.048 3.584s-1.024 2.048-3.584 3.584c-2.048 1.024-3.072 2.048-4.096 2.048s-2.048-1.024-3.584-3.072l-4.096-5.12-1.024-1.024c-0.512 0-0.512 0.512-1.024 1.024l-4.096 5.12c-1.536 2.048-2.56 3.072-3.584 3.072-0.512 0-2.048-0.512-4.096-2.048-2.048-1.536-3.584-2.56-3.584-3.584 0-0.512 0.512-2.048 2.048-3.584l4.096-5.12c0.512-0.512 0.512-1.024 0.512-1.024 0-0.512-0.512-1.024-1.536-1.024l-6.656-1.536c-3.072-0.512-4.096-1.536-4.096-2.56s0.512-3.072 1.536-5.632c0.512-1.536 1.536-2.56 2.56-2.56 1.536 0 3.072 0.512 4.096 0.512zM782.848 713.216c0 10.752-9.728 19.456-21.504 19.456h-33.28c-11.776 0-21.504-8.704-21.504-19.456 0-10.752 9.728-19.968 21.504-19.968h33.28c11.776 0.512 21.504 9.216 21.504 19.968zM745.984 513.024l20.992-21.504c29.696-30.208 31.744-47.104 27.648-55.808-3.072-7.168-10.752-10.24-12.288-10.752-123.904-23.04-124.928-83.968-124.928-86.528-3.584-36.352 23.04-71.68 75.776-97.792 48.128-25.088 114.176-39.936 184.832-43.52 8.192-0.512 16.384-0.512 24.576-0.512 135.68 0 230.912 48.128 237.568 120.32 6.656 70.656-88.576 118.784-247.296 125.44-6.656 0.512-13.824 2.048-16.384 3.072v0.512l-1.536 1.024c-56.32 41.472-127.488 57.344-131.584 57.856l-37.376 8.192zM942.08 215.04c-7.168 0-15.36 0-23.04 0.512-64 2.56-126.976 17.408-170.496 39.424-44.544 22.528-67.584 52.736-65.024 82.944 0 2.56 2.048 50.176 105.984 69.632h1.536c2.048 0.512 20.992 6.144 28.672 21.504 5.632 12.8 3.072 29.184-10.24 48.128 24.064-8.192 55.808-21.504 82.944-41.472 6.656-7.168 23.04-9.728 35.84-11.264 113.152-5.12 230.912-35.328 224.256-106.496-5.12-61.44-89.6-102.912-210.432-102.912z" p-id="4416"></path><path d="M864.256 293.888c-2.56 0-4.096-1.024-4.608-3.072l-1.024-7.68c-0.512-2.56-0.512-5.12-0.512-7.68v-3.072-3.072c0-5.12-1.024-7.168-3.584-7.168-3.584 0-6.656 1.536-9.728 4.608-2.56 2.56-5.12 6.144-6.656 10.24 0 1.024 0 2.048-0.512 3.584 0 1.024-0.512 2.048-0.512 3.072 0 0.512 0 1.536 0.512 3.072 0 1.536 0.512 2.56 0.512 3.072 0 1.024-0.512 2.048-1.024 2.56-1.024 0.512-2.048 1.024-3.072 1.024-1.536 0-2.56-0.512-3.072-1.024-1.024-0.512-1.024-1.536-1.024-2.56 0-0.512 0-1.536-0.512-3.072 0-1.536-0.512-2.56-0.512-3.072 0-2.56 0-5.632 0.512-9.728s0.512-7.168 0.512-9.728V261.12v-3.072c0-1.024 0.512-1.536 1.536-2.56 1.024-0.512 2.048-1.024 3.072-1.024 2.56 0 4.096 1.536 4.608 4.608v4.096c5.12-5.12 10.24-7.68 15.872-7.68 4.608 0 8.192 1.536 10.24 4.608 1.536 2.048 2.048 5.12 2.048 9.216V275.968c0 2.048 0.512 4.096 1.024 7.168s1.024 5.632 1.024 7.168c0 1.024-0.512 2.048-1.536 2.56-1.024 0.512-2.56 1.024-3.584 1.024zM894.976 293.376c-5.12 0-9.216-1.536-13.312-4.096-4.096-3.072-6.144-7.168-6.656-12.8 0-5.12 1.536-9.728 5.12-13.312 4.096-4.608 10.24-7.168 17.92-7.168 6.144 0 10.752 2.048 13.824 6.144 2.56 3.584 3.584 7.168 3.584 12.288s-2.048 9.216-5.12 12.8c-3.584 4.096-8.704 6.144-15.36 6.144z m2.56-30.208c-4.608 0-7.68 1.536-10.24 4.608-2.048 2.56-3.072 5.632-3.072 8.704 0 3.072 1.024 5.632 3.584 7.68 2.048 1.536 4.096 2.048 7.168 2.048 3.072 0 5.632-1.024 8.192-2.56 2.56-2.048 4.096-4.608 4.096-7.68 0.512-8.704-2.56-12.8-9.728-12.8zM957.44 262.144h-4.096c-0.512 0-2.56 0-6.144 0.512l1.024 19.968v3.072c0 5.12-1.536 7.68-4.608 7.68-1.024 0-2.048-0.512-3.072-1.024-1.024-0.512-1.536-1.536-1.536-2.048v-4.096-4.096l-1.024-19.968c-2.048 0-5.632-0.512-10.24-0.512-2.56-0.512-4.096-1.536-4.096-3.584 0-1.024 0.512-2.048 1.024-2.56 1.024-0.512 2.048-1.024 3.072-1.024l9.728 0.512v-4.608-4.096c0-1.024 0.512-1.536 1.536-2.56 1.024-0.512 2.048-1.024 3.072-1.024 2.56 0 4.096 1.536 4.608 5.12v7.168c3.584-0.512 6.144-0.512 6.656-0.512 3.072 0 5.12 0 6.144 0.512 2.048 0.512 2.56 1.536 2.56 3.072 0 1.024-0.512 2.048-1.024 2.56-1.536 1.536-2.56 1.536-3.584 1.536z" p-id="4417"></path><path d="M804.352 326.656c-7.168 0-11.264 3.584-12.288 11.264v2.048c5.12-0.512 8.704-0.512 10.24-0.512 4.608 0 7.168 1.024 7.168 3.584 0 1.536-1.024 2.56-3.584 3.072h-3.584c-1.536 0-5.12 0-10.24 0.512l-0.512 7.68v12.288c0 4.096-0.512 7.68-1.024 10.24-0.512 2.048-2.048 2.56-4.096 2.56-1.024 0-2.048-0.512-3.072-1.024-1.024-0.512-1.536-1.536-1.536-2.048v-0.512c0.512-3.072 1.024-6.144 1.024-9.728v-18.944c-3.584 0-6.144 0.512-7.168 0.512-3.072 0-4.608-1.024-4.608-3.072 0-2.048 2.56-3.584 8.192-3.584h4.608c0-1.024 0.512-3.072 0.512-5.12 1.024-5.12 2.56-8.704 5.12-11.264 3.072-3.072 8.192-4.096 14.848-4.096 4.096 0 6.656 1.024 6.656 3.072-1.024 2.048-2.56 3.072-6.656 3.072zM838.144 376.832c-5.12 0-9.216-1.536-13.312-4.096-4.096-3.072-6.144-7.168-6.656-12.8 0-5.12 1.536-9.728 5.12-13.312 4.096-4.608 10.24-7.168 17.92-7.168 6.144 0 10.752 2.048 13.824 6.144 2.56 3.584 3.584 7.168 3.584 12.288s-2.048 9.216-5.12 12.8c-4.096 4.096-9.216 6.144-15.36 6.144z m2.56-30.208c-4.608 0-7.68 1.536-10.24 4.608-2.048 2.56-3.072 5.632-3.072 8.704 0 3.072 1.024 5.632 3.584 7.68 2.048 1.536 4.096 2.048 7.168 2.048 3.072 0 5.632-1.024 8.192-2.56 2.56-2.048 4.096-4.608 4.096-7.68 0.512-8.704-3.072-12.8-9.728-12.8zM906.752 354.816V373.248c0 1.024-0.512 1.536-1.536 2.56-1.024 0.512-2.048 1.024-3.072 1.024-2.56 0-3.584-1.024-4.608-3.072-3.584 1.536-8.192 2.048-13.312 2.048-4.096 0-7.168-0.512-9.728-2.048-3.072-1.536-4.608-3.584-5.12-6.144-1.024-6.144-1.536-11.264-1.536-15.872 0-3.072 0.512-6.656 1.536-10.752 0.512-2.048 2.048-3.072 4.096-3.072 1.536 0 2.56 0.512 3.072 1.024 1.024 0.512 1.536 1.536 1.536 2.56s0 2.56-0.512 5.12-0.512 4.096-0.512 5.12c0 3.584 0 7.168 0.512 9.728s1.024 5.12 1.536 6.656c1.024 0.512 2.048 0.512 3.072 1.024s2.048 0.512 3.072 0.512c4.096 0 8.192-0.512 12.8-1.536v-13.312c0-5.12 0.512-9.216 1.024-12.8 0.512-2.048 2.048-3.072 4.608-3.072 1.536 0 2.56 0.512 3.072 1.024 1.024 0.512 1.024 1.536 1.024 2.56l-1.024 12.288zM953.344 377.344c-2.56 0-4.096-1.024-4.608-3.072l-1.024-7.68c-0.512-2.56-0.512-5.12-0.512-7.68v-3.072-3.072c0-5.12-1.024-7.168-3.584-7.168-3.584 0-6.656 1.536-9.728 4.608-2.56 2.56-5.12 6.144-6.656 10.24 0 1.024 0 2.048-0.512 3.584 0 1.024-0.512 2.048-0.512 3.072 0 0.512 0 1.536 0.512 3.072 0 1.536 0.512 2.56 0.512 3.072 0 1.024-0.512 2.048-1.024 2.56-1.024 0.512-2.048 1.024-3.072 1.024-1.536 0-2.56-0.512-3.072-1.024-1.024-0.512-1.024-1.536-1.024-2.56 0-0.512 0-1.536-0.512-3.072 0-1.536-0.512-2.56-0.512-3.072 0-2.56 0-5.632 0.512-9.728 0.512-4.096 0.512-7.168 0.512-9.728v-3.072-3.072c0-1.024 0.512-1.536 1.536-2.56 1.024-0.512 2.048-1.024 3.072-1.024 2.56 0 4.096 1.536 4.608 4.608v4.096c5.12-5.12 10.24-7.68 15.872-7.68 4.608 0 8.192 1.536 10.24 4.608 1.536 2.048 2.048 5.12 2.048 9.216V359.424c0 2.048 0.512 4.096 1.024 7.168s1.024 5.632 1.024 7.168c0 1.024-0.512 2.048-1.536 2.56-1.536 0.512-2.56 1.024-3.584 1.024zM1008.64 344.576c-0.512 3.584-0.512 6.656-0.512 10.24 0 7.68 0.512 13.312 1.536 16.896v1.024c0 1.024-0.512 1.536-1.024 2.048-1.024 0.512-2.048 1.024-3.072 1.024-2.048 0-3.072-1.024-4.096-3.072-2.048 1.024-4.608 2.048-6.656 2.56-2.56 0.512-4.608 1.024-7.168 1.024-6.144 0-11.264-1.536-15.36-4.608-4.096-3.072-6.144-7.168-6.144-12.288 0-6.144 2.048-10.752 6.656-14.336 4.096-3.584 9.728-5.632 16.896-5.632 3.584 0 6.144 0.512 8.192 1.024l4.096 2.56c0.512-9.728 1.024-15.872 1.536-19.456 0.512-2.048 1.536-3.072 4.096-3.072s4.096 1.024 4.096 3.072c-1.024 3.584-1.536 10.24-3.072 20.992z m-19.968 1.024c-5.12 0-8.704 1.024-11.264 3.584-2.56 2.048-3.584 5.632-3.584 10.24 0 3.072 1.536 5.632 4.096 7.68 2.56 2.048 6.144 3.072 9.728 3.072 2.56 0 4.608-0.512 6.656-1.024 1.024-0.512 2.56-1.536 5.12-3.072 0.512-0.512 1.024-0.512 1.536-1.024v-14.336c-1.024-2.048-2.56-3.072-4.608-4.096-2.56-0.512-5.12-1.024-7.68-1.024zM1058.304 373.76c0 1.024-0.512 1.536-1.536 2.048-1.024 0.512-2.048 1.024-3.072 1.024-1.024 0-2.56-0.512-3.584-1.536-1.024-1.024-1.536-2.048-1.536-3.072 0-1.024 0.512-1.536 1.536-2.048 1.024-0.512 2.048-1.024 3.072-1.024 1.024 0 2.56 0.512 3.584 1.536 1.024 1.536 1.536 2.56 1.536 3.072z m0-50.688v37.888c0 2.048-1.536 3.072-4.096 3.072s-4.096-1.024-4.096-3.072v-4.096-4.096V337.92v-14.848c0-2.048 1.536-3.072 4.096-3.072s4.096 1.024 4.096 3.072zM1080.32 373.76c0 1.024-0.512 1.536-1.536 2.048-1.024 0.512-2.048 1.024-3.072 1.024-1.024 0-2.56-0.512-3.584-1.536-1.024-1.024-1.536-2.048-1.536-3.072 0-1.024 0.512-1.536 1.536-2.048 1.024-0.512 2.048-1.024 3.072-1.024 1.024 0 2.56 0.512 3.584 1.536 1.024 1.536 1.536 2.56 1.536 3.072z m0-50.688v37.888c0 2.048-1.536 3.072-4.096 3.072s-4.096-1.024-4.096-3.072v-4.096-4.096V337.92v-14.848c0-2.048 1.536-3.072 4.096-3.072s4.096 1.024 4.096 3.072z" p-id="4418"></path></svg>