<?xml version="1.0" standalone="no"?><!DOCTYPE svg PUBLIC "-//W3C//DTD SVG 1.1//EN" "http://www.w3.org/Graphics/SVG/1.1/DTD/svg11.dtd"><svg t="1551180699231" class="icon" style="" viewBox="0 0 1534 1024" version="1.1" xmlns="http://www.w3.org/2000/svg" p-id="13253" xmlns:xlink="http://www.w3.org/1999/xlink" width="95.875" height="64"><defs><style type="text/css"></style></defs><path d="M396.8 861.696h670.208c5.632 0 10.24-4.608 10.24-10.24s-4.608-10.24-10.24-10.24H396.8c-5.632 0-10.24 4.608-10.24 10.24s4.608 10.24 10.24 10.24zM1451.52 311.296c0.512 0.512 2.048 0.512 2.56 0l17.408-17.408 17.408 17.408c0.512 0.512 2.048 0.512 2.56 0s0.512-2.048 0-2.56l-17.408-17.408 17.408-17.408c0.512-0.512 0.512-2.048 0-2.56s-2.048-0.512-2.56 0l-17.408 17.408L1454.08 271.36c-0.512-0.512-2.048-0.512-2.56 0s-0.512 2.048 0 2.56l17.408 17.408-17.408 17.408c-0.512 0.512-0.512 2.048 0 2.56zM1103.36 861.696h30.208c5.632 0 10.24-4.608 10.24-10.24s-4.608-10.24-10.24-10.24h-30.208c-5.632 0-10.24 4.608-10.24 10.24s4.608 10.24 10.24 10.24zM1082.88 152.576c13.312 0 24.064-10.752 24.064-24.064s-10.752-24.064-24.064-24.064-24.064 10.752-24.064 24.064 10.752 24.064 24.064 24.064z m0-37.888h1.024c7.168 0 13.312 6.656 12.8 13.824 0 7.168-6.656 13.312-13.824 12.8-7.168 0-12.8-5.632-12.8-12.8-0.512-7.168 5.632-13.312 12.8-13.824zM560.64 56.32h40.448v39.936c0 2.56 2.048 5.12 5.12 5.12 2.56 0 5.12-2.048 5.12-5.12v-40.448h40.448c2.56 0 5.12-2.048 5.12-5.12 0-2.56-2.048-5.12-5.12-5.12h-40.448V5.12c0-2.56-2.048-5.12-5.12-5.12-2.56 0-5.12 2.048-5.12 5.12v40.96h-40.448c-2.56 0-5.12 2.048-5.12 5.12 0 2.56 2.048 5.12 5.12 5.12zM1228.8 434.176l-13.312 13.312-0.512 0.512v0.512l3.584 3.584h0.512l13.824-13.824c0.512-0.512 0.512-0.512 0-1.024l-3.072-3.072c-0.512-0.512-1.024-0.512-1.024 0zM1228.8 408.064c0 0.512 0.512 0.512 0.512 0.512l3.072-3.072c0.512-0.512 0.512-0.512 0-1.024l-13.824-13.824-3.072 3.072c-0.512 0.512-0.512 0.512 0 1.024l13.312 13.312zM1266.176 445.952c2.048 1.536 4.096 3.584 6.144 5.632h0.512l3.584-3.584-13.824-13.824c-0.512-0.512-0.512-0.512-1.024 0l-3.072 3.072c-0.512 0-0.512 0.512-0.512 0.512l8.192 8.192zM1261.568 408.064c0 0.512 0.512 0.512 1.536 0.512l13.312-13.312 0.512-0.512V394.24l-3.584-3.584h-0.512l-13.824 13.824c-0.512 0-0.512 0 0 0.512 0.512 1.024 1.536 2.048 2.56 3.072zM1241.088 400.384h4.096c1.024 0 1.024-0.512 1.024-1.024v-8.192c0-3.072 0-5.632-0.512-8.704 0-0.512 0-0.512-0.512-0.512h-4.096c-0.512 0-0.512 0-0.512 0.512v17.408c0 0.512 0 0.512 0.512 0.512zM1267.712 416.768c-0.512 0-0.512 0 0 0l-0.512 4.608c0 0.512 0 0.512 0.512 0.512h16.896c0.512 0 0.512 0 0.512-0.512v-4.096c0-0.512 0-0.512-0.512-0.512h-16.896zM1241.6 442.368c-0.512 0-0.512 0-0.512 0.512v17.408c0 0.512 0 0.512 0.512 0.512h4.096c0.512 0 0.512 0 0.512-0.512v-17.408c0-0.512 0-0.512-0.512-0.512h-4.096zM1206.784 421.888h17.408c0.512 0 0.512 0 0.512-0.512v-4.096c0-0.512-0.512-0.512-1.024-0.512h-16.896c-0.512 0-0.512 0-0.512 0.512v4.096c0 0.512 0 0.512 0.512 0.512zM994.816 1000.96h-110.592c-5.632 0-10.24 4.608-10.24 10.24s4.608 10.24 10.24 10.24h110.592c5.632 0 10.24-4.608 10.24-10.24s-4.608-10.24-10.24-10.24zM1040.896 1000.96h-15.872c-5.632 0-10.24 4.608-10.24 10.24s4.608 10.24 10.24 10.24h15.872c5.632 0 10.24-4.608 10.24-10.24s-4.608-10.24-10.24-10.24zM1344.512 902.656H590.336c-5.632 0-10.24 4.608-10.24 10.24s4.608 10.24 10.24 10.24h754.176c5.632 0 10.24-4.608 10.24-10.24s-4.608-10.24-10.24-10.24zM1182.72 1000.96h-110.592c-6.144 0-10.24 4.608-10.24 10.24s4.608 10.24 10.24 10.24H1182.72c5.632 0 10.24-4.608 10.24-10.24s-4.608-10.24-10.24-10.24zM1500.16 477.696c-18.432 0-33.28 14.848-33.28 33.28s14.848 33.28 33.28 33.28 33.28-14.848 33.28-33.28-14.848-33.28-33.28-33.28z m0 56.32c-13.312 0-24.064-10.752-23.552-23.552 0-12.8 10.752-23.552 23.552-23.552s23.552 10.24 23.552 23.552c0 12.8-10.24 23.552-23.552 23.552zM1461.248 902.656h-54.272c-5.632 0-10.24 4.608-10.24 10.24s4.608 10.24 10.24 10.24h54.272c5.632 0 10.24-4.608 10.24-10.24s-4.608-10.24-10.24-10.24zM124.416 902.656h-44.544c-5.632 0-10.24 4.608-10.24 10.24s4.608 10.24 10.24 10.24h44.544c5.632 0 10.24-4.608 10.24-10.24s-4.608-10.24-10.24-10.24zM116.736 164.352c-31.232 0-56.32 25.088-56.32 56.32s25.088 56.32 56.32 56.32 56.32-25.088 56.32-56.32-25.088-56.32-56.32-56.32z m0.512 87.04c-16.896 0-30.72-13.312-30.208-30.208 0-16.896 13.312-30.208 30.208-30.208s30.208 13.312 30.208 30.208-13.312 30.208-30.208 30.208zM796.672 1000.96h-174.592c-5.632 0-10.24 4.608-10.24 10.24s4.608 10.24 10.24 10.24h174.592c5.632 0 10.24-4.608 10.24-10.24s-4.608-10.24-10.24-10.24zM91.648 505.344c0-2.048-1.536-3.584-3.584-3.584H49.152v-37.888c0-2.048-1.536-3.584-3.584-3.584s-3.584 1.536-3.584 3.584V501.76H3.584c-2.048 0-3.584 1.536-2.56 3.584 0 2.048 1.536 3.584 3.584 3.584h38.4v38.4c0 2.048 1.536 3.584 3.584 3.584s3.584-1.536 3.584-3.584v-38.4h37.888c2.048 0 3.584-1.536 3.584-3.584zM328.704 861.696h30.208c5.632 0 10.24-4.608 10.24-10.24s-4.608-10.24-10.24-10.24h-30.208c-5.632 0-10.24 4.608-10.24 10.24s4.608 10.24 10.24 10.24zM480.256 902.656H177.152c-5.632 0-10.24 4.608-10.24 10.24s4.608 10.24 10.24 10.24h303.104c5.632 0 10.24-4.608 10.24-10.24s-4.608-10.24-10.24-10.24zM551.936 902.656h-24.064c-5.632 0-10.24 4.608-10.24 10.24s4.608 10.24 10.24 10.24h24.064c5.632 0 10.24-4.608 10.24-10.24s-4.608-10.24-10.24-10.24z" fill="#fd7758" p-id="13254"></path><path d="M539.136 519.168c1.536 4.096 2.56 9.216 2.56 15.36 0 3.584-1.024 6.656-3.072 7.68-2.048 1.536-5.12 2.048-9.728 2.048H427.52l-7.168 86.016c17.92-3.584 33.28-5.12 47.104-5.12 25.088 0 45.056 5.632 60.416 16.384 14.848 10.752 22.528 29.184 22.528 54.784 0 29.696-10.24 53.248-31.232 70.656-20.48 16.896-51.712 25.6-92.672 25.6-24.064 0-39.936-1.536-47.104-4.608-7.68-3.072-11.264-8.704-11.264-16.896 0-7.168 3.072-14.336 8.704-21.504 23.552 10.752 44.032 15.872 61.952 15.872 22.016 0 37.888-4.608 48.128-14.336s15.36-23.04 15.36-40.448c0-20.48-5.632-35.328-16.384-44.032-10.752-8.704-24.064-13.312-40.448-13.312-12.288 0-25.088 1.536-38.4 5.12h-22.528c-3.584-4.608-5.12-11.264-4.608-19.968l7.68-102.912c0.512-6.144 2.048-10.752 4.608-13.312s6.656-4.096 11.776-4.096h135.168z" fill="#fd7758" p-id="13255"></path><path d="M788.992 427.52c1.536 0.512 10.24 3.584 14.336 11.264 4.096 8.704 2.56 26.112-31.744 56.832L747.52 517.12l40.96-7.68c3.584-0.512 84.48-16.384 147.968-58.88l1.536-1.024v-0.512c3.584-1.024 11.776-2.56 18.944-3.072 180.736-6.656 287.744-55.808 280.576-126.976-7.68-72.704-115.712-121.344-268.8-121.344-9.216 0-17.92 0-27.136 0.512-79.36 3.072-154.112 18.432-208.896 43.52-58.88 26.624-89.088 62.464-85.504 99.328 0.512 1.536 1.536 62.976 141.824 86.528z m-38.4-172.544c49.664-22.528 119.808-37.376 193.536-39.936 8.704-0.512 16.896-0.512 25.6-0.512 136.192 0 232.96 41.984 238.592 104.448 7.68 71.68-125.952 102.912-253.952 108.032-15.36 1.024-33.28 4.096-40.96 11.776-30.72 20.48-66.56 34.304-94.208 42.496 14.336-18.944 18.944-35.328 11.776-48.128-8.704-16.384-30.208-21.504-32.768-22.016h-1.024c-118.272-19.968-120.832-67.584-120.832-70.144-2.048-32.768 23.552-62.976 74.24-86.016z" fill="#fd7758" p-id="13256"></path><path d="M844.8 261.632c-1.536 0-2.56-0.512-3.072-1.536-0.512-0.512-0.512-2.048-1.024-4.608-2.048 0.512-5.12 1.536-9.728 2.56-4.608 1.536-6.656 3.584-7.168 6.144 1.024 0.512 1.536 0.512 2.56 0.512 6.656 1.024 11.264 3.072 14.336 5.12 4.608 3.072 6.656 7.168 6.656 12.288 0 4.608-2.048 7.68-6.144 9.728-3.072 1.536-7.68 2.56-12.288 2.56-3.584 0-7.168-0.512-10.24-2.048-4.096-1.536-6.144-3.584-6.144-6.656 0-1.024 0.512-2.048 1.536-2.56 1.024-1.024 2.048-1.024 3.072-1.024 1.024 0 2.048 0.512 3.072 2.048 0.512 0.512 2.048 1.024 4.608 1.536 2.048 0.512 3.584 0.512 4.608 0.512 2.56 0 4.608 0 6.144-0.512 2.56-0.512 4.096-2.048 4.096-3.584 0-3.584-2.56-6.144-7.68-7.68l-4.096-1.024c-3.584-1.024-6.144-2.048-7.68-3.072-2.048-1.536-3.072-4.096-3.072-7.168 0-5.632 3.072-9.728 8.704-11.776 1.536-0.512 4.608-1.536 8.192-2.56 3.584-1.024 6.144-1.536 8.192-2.56 1.024-0.512 2.56-0.512 3.584-0.512 1.024 0 2.048 0.512 3.072 1.024 0.512 1.024 1.024 1.536 1.024 3.072 0 1.024 0 2.048 0.512 3.584 0.512 1.536 0.512 2.56 0.512 3.584 0 1.024-0.512 2.048-1.024 3.072-3.072 1.536-4.096 1.536-5.12 1.536zM877.056 295.424c-6.144 0-11.264-1.536-15.36-5.12-4.096-3.584-6.144-8.192-6.144-14.336 0-7.168 2.048-12.8 5.632-17.408 4.096-5.12 9.216-7.68 15.36-7.68 4.608 0 8.192 1.024 11.264 2.56 3.584 2.048 5.12 4.608 5.12 8.704 0 2.56-1.536 5.12-5.12 7.168-1.536 1.024-4.608 2.56-9.216 4.608l-16.384 7.168c1.536 2.048 3.584 4.096 5.632 5.12 2.56 1.024 5.12 2.048 8.192 2.048 2.048 0 4.096-0.512 6.656-1.024 3.072-1.024 5.632-2.048 6.656-3.584 1.024-1.536 2.048-2.048 3.072-2.048 1.024 0 2.048 0.512 2.56 1.024s1.024 1.536 1.024 2.56c0 3.072-2.56 5.632-7.68 7.68-3.072 2.048-7.168 3.072-11.264 2.56z m-0.512-36.864c-3.584 0-6.144 1.024-8.704 3.584-2.56 2.56-4.096 6.144-5.12 11.264l12.8-5.632c5.12-2.048 8.704-4.096 10.752-6.144-2.048-1.536-5.12-3.072-9.728-3.072zM937.984 265.216c-0.512 3.584-1.536 5.12-4.096 5.12s-3.584-1.536-3.584-4.096V259.584c-4.608 0.512-8.192 1.536-10.752 3.584-2.56 1.536-4.608 4.096-6.144 7.68l-0.512 22.016c0 2.56-1.536 4.096-4.096 4.096s-3.584-1.536-3.584-4.096l0.512-28.672v-4.096-4.096c0-2.56 1.536-4.096 3.584-4.096 2.56 0 4.096 2.56 4.096 6.656 5.632-5.12 11.264-7.168 17.92-7.168 2.048 0 4.096 1.024 5.12 2.56 1.024 1.536 1.536 4.096 1.536 7.68v3.584zM965.12 293.376c0 2.56-1.536 3.584-4.096 3.584-2.048 0-3.584-1.024-4.608-3.584l-6.144-16.384-7.168-18.944c-0.512-0.512-0.512-1.536-0.512-2.048 0-1.024 0.512-2.048 1.536-3.072 1.024-0.512 2.048-1.024 3.072-1.024 1.536 0 3.072 1.024 3.584 2.56l10.24 28.672c2.048-4.096 5.12-10.752 8.192-18.432 1.024-2.048 2.048-5.12 3.584-9.216 1.024-1.536 2.048-2.56 3.584-2.56 1.024 0 2.048 0.512 3.072 1.024 1.024 1.024 1.024 1.536 1.024 3.072 0 1.024-2.56 6.656-7.168 17.408l-8.192 18.944zM1007.104 298.496c-6.144 0-11.264-1.536-15.36-5.12-4.096-3.584-6.144-8.192-6.144-14.336 0-7.168 2.048-12.8 5.632-17.408 4.096-5.12 9.216-7.68 15.36-7.68 4.608 0 8.192 1.024 11.264 2.56 3.584 2.048 5.12 4.608 5.12 8.704 0 2.56-1.536 5.12-5.12 7.168-1.536 1.024-4.608 2.56-9.216 4.608l-16.384 7.168c1.536 2.048 3.584 4.096 5.632 5.12 2.56 1.024 5.12 2.048 8.192 2.048 2.048 0 4.096-0.512 6.656-1.024 3.072-1.024 5.632-2.048 6.656-3.584s2.048-2.048 3.072-2.048c1.024 0 2.048 0.512 2.56 1.024 0.512 0.512 1.024 1.536 1.024 2.56 0 3.072-2.56 5.632-7.68 7.68-3.072 1.536-7.168 2.56-11.264 2.56z m-0.512-37.376c-3.584 0-6.144 1.024-8.704 3.584-2.56 2.56-4.096 6.144-5.12 11.264l12.8-5.632c5.12-2.048 8.704-4.096 10.752-6.144-2.048-1.536-5.12-2.56-9.728-3.072zM1068.032 267.776c-0.512 3.584-1.536 5.12-4.096 5.12s-3.584-1.536-3.584-4.096V262.144c-4.608 0.512-8.192 1.536-10.752 3.584-2.56 1.536-4.608 4.096-6.144 7.68l-0.512 22.016c0 2.56-1.536 4.096-4.096 4.096s-3.584-1.536-3.584-4.096l0.512-28.672v-4.096-4.096c0-2.56 1.536-4.096 3.584-4.096 2.56 0 4.096 2.56 4.096 6.656 5.632-5.12 11.264-7.168 17.92-7.168 2.048 0 4.096 1.024 5.12 2.56 1.024 1.536 1.536 4.096 1.536 7.68v3.584z" fill="#fd7758" p-id="13257"></path><path d="M833.024 394.752c-6.144 0-11.264-1.536-15.36-5.12-4.096-3.584-6.144-8.192-6.144-14.336 0-7.168 2.048-12.8 5.632-17.408 4.096-5.12 9.216-7.68 15.36-7.68 4.608 0 8.192 1.024 11.264 2.56 3.584 2.048 5.12 4.608 5.12 8.704 0 2.56-1.536 5.12-5.12 7.168-1.536 1.024-4.608 2.56-9.216 4.608l-16.384 7.168c1.536 2.048 3.584 4.096 5.632 5.12 2.56 1.024 5.12 2.048 8.192 2.048 2.048 0 4.096-0.512 6.656-1.024 3.072-1.024 5.632-2.048 6.656-3.584 1.024-1.536 2.048-2.048 3.072-2.048 1.024 0 2.048 0.512 2.56 1.024 0.512 0.512 1.024 1.536 1.024 2.56 0 3.072-2.56 5.632-7.68 7.68-2.56 1.536-7.168 2.56-11.264 2.56z m0-37.376c-3.584 0-6.144 1.024-8.704 3.584-2.56 2.56-4.096 6.144-5.12 11.264l12.8-5.632c5.12-2.048 8.704-4.096 10.752-6.144-2.048-1.536-5.632-2.56-9.728-3.072zM893.952 364.032c-0.512 3.584-1.536 5.12-4.096 5.12s-3.584-1.536-3.584-4.096V358.4c-4.608 0.512-8.192 1.536-10.752 3.584-2.56 1.536-4.608 4.096-6.144 7.68l-0.512 22.016c0 2.56-1.536 4.096-4.096 4.096s-3.584-1.536-3.584-4.096l0.512-28.672v-4.096-4.096c0-2.56 1.536-4.096 3.584-4.096 2.56 0 4.096 2.56 4.096 6.656 5.632-5.12 11.264-7.168 17.92-7.168 2.048 0 4.096 1.024 5.12 2.56 1.024 1.536 1.536 4.096 1.536 7.68v3.584zM935.424 365.056c-0.512 3.584-1.536 5.12-4.096 5.12s-3.584-1.536-3.584-4.096V359.424c-4.608 0.512-8.192 1.536-10.752 3.584-2.56 1.536-4.608 4.096-6.144 7.68l-0.512 22.016c0 2.56-1.536 4.096-4.096 4.096s-3.584-1.536-3.584-4.096l0.512-28.672v-4.096-4.096c0-2.56 1.536-4.096 3.584-4.096 2.56 0 4.096 2.56 4.096 6.656 5.632-5.12 11.264-7.168 17.92-7.168 2.048 0 4.096 1.024 5.12 2.56 1.024 1.536 1.536 4.096 1.536 7.68v3.584zM958.976 397.824c-4.608 0-8.704-2.048-11.776-5.12-3.584-3.584-5.632-8.704-5.632-15.36 0-6.144 1.536-11.264 5.12-15.872 4.096-5.632 9.728-8.192 16.384-7.68 5.632 0 9.728 2.56 12.8 7.68 2.048 4.096 3.072 8.704 3.072 14.336 0 6.144-2.048 11.264-5.12 15.36-4.096 4.096-9.216 6.656-14.848 6.656z m3.072-36.352c-4.096 0-7.168 1.536-9.728 5.632-2.048 3.072-3.072 6.656-3.072 10.24s1.024 7.168 3.072 9.216c2.048 2.048 4.096 2.56 6.656 3.072 3.072 0 5.632-1.024 7.68-3.072 2.56-2.048 3.584-5.12 4.096-9.216 0.512-10.24-2.56-15.872-8.704-15.872zM1021.44 366.592c-0.512 3.584-1.536 5.12-4.096 5.12s-3.584-1.536-3.584-4.096V360.96c-4.608 0.512-8.192 1.536-10.752 3.584-2.56 1.536-4.608 4.096-6.144 7.68l-0.512 22.016c0 2.56-1.536 4.096-4.096 4.096s-3.584-1.536-3.584-4.096l0.512-28.672v-4.096-4.096c0-2.56 1.536-4.096 3.584-4.096 2.56 0 4.096 2.56 4.096 6.656 5.632-5.12 11.264-7.168 17.92-7.168 2.048 0 4.096 1.024 5.12 2.56 1.024 1.536 1.536 4.096 1.536 7.68v3.584zM1034.752 400.384c-1.536 0-2.56-0.512-3.584-1.536-1.024-1.024-1.536-2.048-1.536-3.584 0-1.536 0.512-2.56 1.536-3.584 1.024-1.024 2.048-1.536 3.584-1.536 1.536 0 2.56 0.512 3.584 1.536 1.024 1.024 1.536 2.048 1.536 3.584 0 1.536-0.512 2.56-1.536 3.584s-2.048 2.048-3.584 1.536zM1056.256 400.896c-1.536 0-2.56-0.512-3.584-1.536-1.024-1.024-1.536-2.048-1.536-3.584 0-1.536 0.512-2.56 1.536-3.584 1.024-1.024 2.048-1.536 3.584-1.536 1.536 0 2.56 0.512 3.584 1.536 1.024 1.024 1.536 2.048 1.536 3.584 0 1.536-0.512 2.56-1.536 3.584-1.024 1.024-2.048 1.536-3.584 1.536z" fill="#fd7758" p-id="13258"></path><path d="M1066.496 618.496c-0.512-0.512-1.024-0.512-1.536-0.512s-2.048 0.512-3.072 1.024l-6.144 2.56c-0.512 0-1.024 0.512-1.024 0.512-0.512 0-1.024-0.512-1.024-1.536l0.512-6.656v-2.56c0-1.024-0.512-1.536-1.024-2.048-0.512-0.512-2.048-0.512-4.096-0.512-2.56 0-3.584 0.512-4.608 0.512-0.512 0.512-1.024 1.536-1.024 3.584v0.512l0.512 6.656v0.512c0 1.024-0.512 1.536-1.024 1.536 0 0-0.512 0-1.024-0.512l-6.144-2.56c-1.536-0.512-2.56-0.512-3.072-0.512-1.024 0-2.048 1.024-2.56 2.56-1.024 2.56-1.536 4.608-1.536 5.632s1.536 2.048 4.096 3.072l6.656 2.048c1.024 0.512 1.536 0.512 1.536 1.024 0 0 0 0.512-0.512 1.024l-4.096 5.12c-1.024 1.536-2.048 3.072-2.048 3.584 0 1.024 1.024 2.048 3.072 3.584 2.048 1.536 3.072 2.048 4.096 2.048s2.048-1.024 3.584-3.072l3.584-5.632 1.024-1.024c0.512 0 0.512 0.512 1.024 1.024l3.584 5.632c1.536 2.048 2.56 3.072 3.584 3.072 0.512 0 2.048-0.512 4.096-2.048 2.048-1.536 3.072-2.56 3.072-3.584s-0.512-2.048-2.048-3.584l-4.096-5.12c-0.512-0.512-0.512-1.024-0.512-1.024 0-0.512 0.512-1.024 1.536-1.024l6.656-2.048c2.56-0.512 4.096-1.536 4.096-3.072 0-1.024-0.512-2.56-1.024-5.12-2.56-2.048-3.072-2.56-3.072-3.072z" fill="#fd7758" p-id="13259"></path><path d="M1117.184 596.992c-13.312-27.648-33.28-48.128-59.904-62.464-19.456-10.24-39.936-15.36-61.44-15.36-34.816 0-63.488 10.752-86.528 32.768-26.112 24.576-39.424 58.368-39.424 101.888 0 44.032 14.336 79.36 43.008 105.984 24.064 22.528 53.248 33.792 87.552 33.792 31.232 0 58.88-10.24 82.944-30.208 31.744-26.624 47.616-60.416 47.616-101.888 0.512-23.04-4.096-44.544-13.824-64.512z m-46.592 139.776c-20.48 14.848-43.52 22.528-69.632 22.528-28.672 0-53.248-8.704-73.728-25.088-24.064-19.968-35.84-46.592-35.84-79.872 0-32.768 10.752-57.856 32.768-76.288 19.456-16.384 43.52-24.576 72.704-24.576 17.92 0 34.816 4.096 51.2 11.776 22.528 10.24 38.912 26.112 50.176 46.592 8.192 15.36 12.288 31.232 12.288 48.128 0 31.232-13.312 56.832-39.936 76.8z" fill="#fd7758" p-id="13260"></path><path d="M969.216 641.536c0-1.024-0.512-2.048-2.048-3.584l-4.096-5.12c-0.512-0.512-0.512-1.024-0.512-1.024 0-0.512 0.512-1.024 1.536-1.024l6.656-2.048c2.56-0.512 4.096-1.536 4.096-3.072 0-1.024-0.512-2.56-1.536-5.12-0.512-1.024-1.024-2.048-1.024-2.56-0.512-0.512-1.024-0.512-1.536-0.512s-2.048 0.512-3.072 1.024l-6.144 2.56c-0.512 0-1.024 0.512-1.024 0.512-0.512 0-1.024-0.512-1.024-1.536v-6.656-2.56c0-1.024-0.512-1.536-1.024-2.048-0.512-0.512-2.048-0.512-4.096-0.512-2.56 0-3.584 0.512-4.608 0.512-0.512 0.512-1.024 1.536-1.024 3.584v0.512l0.512 6.656v0.512c0 1.024-0.512 1.536-1.024 1.536 0 0-0.512 0-1.024-0.512l-6.144-2.56c-1.536-0.512-2.56-0.512-3.072-0.512-1.024 0-2.048 1.024-2.56 2.56-1.024 2.56-1.536 4.608-1.536 5.632s1.536 2.048 4.096 3.072l6.656 2.048c1.024 0.512 1.536 0.512 1.536 1.024 0 0 0 0.512-0.512 1.024l-4.096 5.12c-1.024 1.536-2.048 3.072-2.048 3.584 0 1.024 1.024 2.048 3.072 3.584 2.048 1.536 3.072 2.048 4.096 2.048s2.048-1.024 3.584-3.072l3.584-5.632 1.024-1.024c0.512 0 0.512 0.512 1.024 1.024l3.584 5.632c1.536 2.048 2.56 3.072 3.584 3.072 0.512 0 2.048-0.512 4.096-2.048 1.024-1.536 2.048-3.072 2.048-4.096zM1016.832 698.88h-31.744c-11.264 0-20.48 9.216-20.48 20.48s9.216 20.48 20.48 20.48h31.744c11.264 0 20.48-9.216 20.48-20.48 0.512-11.264-8.704-20.48-20.48-20.48zM773.632 534.528c-19.456-10.24-39.936-15.36-61.44-15.36-34.816 0-63.488 10.752-86.528 32.768-26.112 24.576-39.424 58.368-39.424 101.888 0 44.032 14.336 79.36 43.008 105.984 24.064 22.528 53.248 33.792 87.552 33.792 31.232 0 58.88-10.24 82.944-30.208 31.744-26.624 47.616-60.416 47.616-101.888 0-22.528-5.12-44.032-14.848-64-12.288-28.16-32.256-48.64-58.88-62.976z m13.312 202.24c-20.48 14.848-43.52 22.528-69.632 22.528-28.672 0-53.248-8.704-73.728-25.088-24.064-19.968-35.84-46.592-35.84-79.872 0-32.768 10.752-57.856 32.768-76.288 19.456-16.384 43.52-24.576 72.704-24.576 17.92 0 34.816 4.096 51.2 11.776 22.528 10.24 38.912 26.112 50.176 46.592 8.192 15.36 12.288 31.232 12.288 48.128 0 31.232-13.312 56.832-39.936 76.8z" fill="#fd7758" p-id="13261"></path><path d="M685.568 641.536c0-1.024-0.512-2.048-2.048-3.584l-4.096-5.12c-0.512-0.512-0.512-1.024-0.512-1.024 0-0.512 0.512-1.024 1.536-1.024l6.656-2.048c2.56-0.512 4.096-1.536 4.096-3.072 0-1.024-0.512-2.56-1.536-5.12-0.512-1.024-1.024-2.048-1.024-2.56-0.512-0.512-1.024-0.512-1.536-0.512s-2.048 0.512-3.072 1.024l-6.144 2.56c-0.512 0-1.024 0.512-1.024 0.512-0.512 0-1.024-0.512-1.024-1.536v-6.656-2.56c0-1.024-0.512-1.536-1.024-2.048-0.512-0.512-2.048-0.512-4.096-0.512-2.56 0-3.584 0.512-4.608 0.512-0.512 0.512-1.024 1.536-1.024 3.584v0.512l0.512 6.656v0.512c0 1.024-0.512 1.536-1.024 1.536 0 0-0.512 0-1.024-0.512l-6.144-2.56c-1.536-0.512-2.56-0.512-3.072-0.512-1.024 0-2.048 1.024-2.56 2.56-1.024 2.56-1.536 4.608-1.536 5.632s1.536 2.048 4.096 3.072l6.656 2.048c1.024 0.512 1.536 0.512 1.536 1.024 0 0 0 0.512-0.512 1.024l-4.096 5.12c-1.024 1.536-2.048 3.072-2.048 3.584 0 1.024 1.024 2.048 3.072 3.584 2.048 1.536 3.072 2.048 4.096 2.048s2.048-1.024 3.584-3.072l3.584-5.632 1.024-1.024c0.512 0 0.512 0.512 1.024 1.024l3.584 5.632c1.536 2.048 2.56 3.072 3.584 3.072 0.512 0 2.048-0.512 4.096-2.048 1.024-1.536 2.048-3.072 2.048-4.096zM782.336 618.496c-0.512-0.512-1.024-0.512-1.536-0.512s-2.048 0.512-3.072 1.024l-6.144 2.56c-0.512 0-1.024 0.512-1.024 0.512-0.512 0-1.024-0.512-1.024-1.536l0.512-6.656v-2.56c0-1.024-0.512-1.536-1.024-2.048-0.512-0.512-2.048-0.512-4.096-0.512-2.56 0-3.584 0.512-4.608 0.512-0.512 0.512-1.024 1.536-1.024 3.584v0.512l0.512 6.656v0.512c0 1.024-0.512 1.536-1.024 1.536 0 0-0.512 0-1.024-0.512l-6.144-2.56c-1.536-0.512-2.56-0.512-3.072-0.512-1.024 0-2.048 1.024-2.56 2.56-1.024 2.56-1.536 4.608-1.536 5.632s1.536 2.048 4.096 3.072l6.656 2.048c1.024 0.512 1.536 0.512 1.536 1.024 0 0 0 0.512-0.512 1.024l-4.096 5.12c-1.024 1.536-2.048 3.072-2.048 3.584 0 1.024 1.024 2.048 3.072 3.584 2.048 1.536 3.072 2.048 4.096 2.048s2.048-1.024 3.584-3.072l3.584-5.632 1.024-1.024c0.512 0 0.512 0.512 1.024 1.024l3.584 5.632c1.536 2.048 2.56 3.072 3.584 3.072 0.512 0 2.048-0.512 4.096-2.048 2.048-1.536 3.072-2.56 3.072-3.584s-0.512-2.048-2.048-3.584l-4.096-5.12c-0.512-0.512-0.512-1.024-0.512-1.024 0-0.512 0.512-1.024 1.536-1.024l6.656-2.048c2.56-0.512 4.096-1.536 4.096-3.072 0-1.024-0.512-2.56-1.024-5.12l-3.072-3.072zM733.184 698.88H701.44c-11.264 0-20.48 9.216-20.48 20.48s9.216 20.48 20.48 20.48h31.744c11.264 0 20.48-9.216 20.48-20.48s-9.216-20.48-20.48-20.48z" p-id="13262"></path></svg>