<?xml version="1.0" standalone="no"?><!DOCTYPE svg PUBLIC "-//W3C//DTD SVG 1.1//EN" "http://www.w3.org/Graphics/SVG/1.1/DTD/svg11.dtd"><svg t="1552997635867" class="icon" style="" viewBox="0 0 1024 1024" version="1.1" xmlns="http://www.w3.org/2000/svg" p-id="8420" xmlns:xlink="http://www.w3.org/1999/xlink" width="64" height="64"><defs><style type="text/css"></style></defs><path d="M512 684.032h261.12a24.576 24.576 0 0 0 25.088-24.576 25.088 25.088 0 0 0-25.088-24.576H512a24.576 24.576 0 0 0-25.088 24.576 25.088 25.088 0 0 0 25.088 24.576zM512 787.456h261.12a24.576 24.576 0 0 0 25.088-24.576 25.088 25.088 0 0 0-25.088-24.576H512a24.576 24.576 0 0 0-25.088 24.576 25.088 25.088 0 0 0 25.088 24.576z"  p-id="8421"></path><path d="M855.04 444.416v412.16H256v-326.656h238.08a51.2 51.2 0 0 0 37.888-16.896 527.872 527.872 0 0 1 70.656-66.56h252.416m7.68-51.2H593.92c-24.064 0-99.84 83.456-99.84 83.456H249.344a43.52 43.52 0 0 0-43.52 43.52v344.064a43.52 43.52 0 0 0 43.52 43.52h614.4a43.52 43.52 0 0 0 43.52-43.52V439.296a43.52 43.52 0 0 0-43.52-43.52z"  p-id="8422"></path><path d="M256 859.136H204.8c-21.504 0-33.792-5.632-33.792-33.792V355.328H256v-51.2H161.28a43.52 43.52 0 0 0-43.52 43.52v477.696A77.824 77.824 0 0 0 204.8 910.336h51.2zM797.184 429.056h54.272V284.16l-163.84-170.496H368.128A102.4 102.4 0 0 0 256 213.504v295.424h57.344V233.984A65.024 65.024 0 0 1 370.688 168.96h236.544v74.752C610.304 327.68 656.384 358.4 716.8 358.4h77.824z m-67.584-124.928c-45.056 0-59.904-5.12-64.512-58.88V176.64l128 127.488z"  p-id="8423"></path></svg>