<?xml version="1.0" standalone="no"?><!DOCTYPE svg PUBLIC "-//W3C//DTD SVG 1.1//EN" "http://www.w3.org/Graphics/SVG/1.1/DTD/svg11.dtd"><svg t="1550631265877" class="icon" style="" viewBox="0 0 2195 1024" version="1.1" xmlns="http://www.w3.org/2000/svg" p-id="10751" xmlns:xlink="http://www.w3.org/1999/xlink" width="137.1875" height="64"><defs><style type="text/css"></style></defs><path d="M0.686391 587.83645h214.897494a247.215057 247.215057 0 0 0 153.865919-43.242615 140.938894 140.938894 0 0 0 56.455636-118.345199 136.706151 136.706151 0 0 0-22.87969-82.366886 128.469463 128.469463 0 0 0-74.358995-45.301788v-3.775149a106.50496 106.50496 0 0 0 62.919149-42.270228 131.558221 131.558221 0 0 0 23.794879-79.335327 113.368867 113.368867 0 0 0-54.568062-104.045393A327.980365 327.980365 0 0 0 193.676581 35.749517H1.086785v552.086933zM149.861973 148.66079h41.927033q70.183451 0 70.24065 46.445771a46.159776 46.159776 0 0 1-17.560162 39.295869 81.222902 81.222902 0 0 1-49.648929 13.213021H149.861973v-98.954661z m49.477331 208.090785a86.313633 86.313633 0 0 1 54.167668 14.700202 50.678515 50.678515 0 0 1 18.704147 42.327427 57.199226 57.199226 0 0 1-69.840256 58.915204H149.861973V356.751575h49.477331zM660.822663 0.228797H513.019862v587.607653h147.688403V0.228797z m484.706246 255.85214a183.037525 183.037525 0 0 0-74.358995-76.818561 225.708148 225.708148 0 0 0-111.424093-26.826437 211.179544 211.179544 0 0 0-158.441857 57.942816 260.027684 260.027684 0 0 0 1.143984 325.006005 204.887629 204.887629 0 0 0 155.009904 60.001988 209.005974 209.005974 0 0 0 158.041463-58.686406 226.623335 226.623335 0 0 0 56.512835-163.704186 249.045432 249.045432 0 0 0-26.483241-116.915219z m-236.232806 33.97634a56.856031 56.856031 0 0 1 97.810677 0 186.927072 186.927072 0 0 1 14.357006 82.710082 196.879738 196.879738 0 0 1-14.185408 84.025664 49.763327 49.763327 0 0 1-48.504944 28.599613 51.479304 51.479304 0 0 1-49.477331-28.599613 189.844233 189.844233 0 0 1-14.7574-84.025664 182.293935 182.293935 0 0 1 14.7574-82.710082z m601.22107-130.071041c-9.094677-1.48718-22.879691-3.145957-42.327428-4.919133s-32.603559-2.631164-40.382654-2.631164a211.293943 211.293943 0 0 0-135.962561 38.495079 131.558221 131.558221 0 0 0-47.589757 108.67853 143.741656 143.741656 0 0 0 19.104542 76.303768 113.826461 113.826461 0 0 0 52.280093 45.759382 162.960596 162.960596 0 0 0-45.759381 36.435907 57.199226 57.199226 0 0 0 3.603551 71.956627 85.455644 85.455644 0 0 0 34.319536 26.826437 101.357029 101.357029 0 0 0-95.179513 98.954662 97.238685 97.238685 0 0 0 49.305733 87.400418 268.836364 268.836364 0 0 0 140.309703 30.429988 341.536581 341.536581 0 0 0 187.09867-43.471412 137.278144 137.278144 0 0 0 66.637099-121.605555q0-121.147962-143.856055-121.205161h-70.98424a152.207142 152.207142 0 0 1-46.445772-5.719923 20.248526 20.248526 0 0 1-17.788959-16.816572 39.295869 39.295869 0 0 1 5.319528-18.53255 183.037525 183.037525 0 0 0 37.751489 3.031559 231.48527 231.48527 0 0 0 144.828442-38.151884 128.583861 128.583861 0 0 0 48.504944-107.24855 103.759397 103.759397 0 0 0-12.069037-50.96451l58.514808-21.506909V160.100635H1510.631571z m-156.954678 453.761464a70.011853 70.011853 0 0 1 40.039459-11.439845h57.828418a174.51484 174.51484 0 0 1 56.226839 6.978305 24.881664 24.881664 0 0 1 19.676534 23.966476 41.297842 41.297842 0 0 1-32.317563 34.319536 228.167714 228.167714 0 0 1-85.798839 13.441818 105.818569 105.818569 0 0 1-52.451691-11.153849 33.232751 33.232751 0 0 1-19.676534-29.286004 32.431961 32.431961 0 0 1 16.759373-26.826437z m75.731776-379.34527q44.215002 0 44.215002 66.465501a84.31166 84.31166 0 0 1-11.439845 48.676542 37.522693 37.522693 0 0 1-32.660759 16.24458q-45.759381 0-45.759381-65.721911t45.759381-65.664712z"  p-id="10752"></path></svg>