<?xml version="1.0" standalone="no"?><!DOCTYPE svg PUBLIC "-//W3C//DTD SVG 1.1//EN" "http://www.w3.org/Graphics/SVG/1.1/DTD/svg11.dtd"><svg t="1555087669283" class="icon" style="" viewBox="0 0 1024 1024" version="1.1" xmlns="http://www.w3.org/2000/svg" p-id="2025" xmlns:xlink="http://www.w3.org/1999/xlink" width="24" height="24"><defs><style type="text/css"></style></defs><path d="M512 0C229.333333 0 0 229.333333 0 512s229.333333 512 512 512 512-229.333333 512-512S794.666667 0 512 0z m210.986667 713.173333c-10.666667 10.666667-29.653333 10.666667-40.533334 0l-161.066666-161.066666-161.066667 161.066666c-10.666667 10.666667-29.653333 10.666667-40.533333 0-10.666667-10.666667-10.666667-29.653333 0-40.533333l161.066666-161.066667-160.426666-160.426666c-10.666667-10.666667-10.666667-29.653333 0-40.533334 10.666667-10.666667 29.653333-10.666667 40.533333 0l160.426667 160.426667 160.426666-160.426667c11.306667-10.666667 29.653333-10.666667 40.533334 0 10.666667 10.666667 10.666667 29.653333 0 40.533334l-160.426667 160.426666 161.066667 161.066667c10.666667 10.88 10.666667 29.866667 0 40.533333z" p-id="2026"></path></svg>