<?xml version="1.0" standalone="no"?><!DOCTYPE svg PUBLIC "-//W3C//DTD SVG 1.1//EN" "http://www.w3.org/Graphics/SVG/1.1/DTD/svg11.dtd"><svg t="1552526148814" class="icon" style="" viewBox="0 0 1024 1024" version="1.1" xmlns="http://www.w3.org/2000/svg" p-id="4976" xmlns:xlink="http://www.w3.org/1999/xlink" width="64" height="64"><defs><style type="text/css"></style></defs><path d="M898.173247 197.550285 125.826753 197.550285c-42.780339 0-77.596286 34.815947-77.596286 77.682243l0 473.597365c0 42.890856 34.815947 77.618798 77.596286 77.618798l772.346493 0c42.958394 0 77.596286-34.727942 77.596286-77.618798L975.769532 275.232528C975.767486 232.367255 941.129594 197.550285 898.173247 197.550285L898.173247 197.550285M879.604332 253.17414 571.606563 526.268982c-26.881231 23.978111-46.789653 35.891442-59.606563 35.891442s-32.726356-11.913331-59.607586-35.891442L144.395668 253.17414 879.604332 253.17414 879.604332 253.17414M105.949031 731.532949 105.949031 303.630299l240.541425 210.983225L105.949031 731.532949 105.949031 731.532949M146.399301 770.826883l241.446028-214.417441 39.552831 34.727942c22.98755 20.080338 51.297316 30.396287 84.600817 30.396287 33.477462 0 61.610196-10.31595 84.685751-30.396287l39.551808-34.727942 241.454214 214.417441L146.399301 770.826883 146.399301 770.826883M918.081669 731.532949l-240.544495-216.920448 240.544495-210.983225L918.081669 731.532949 918.081669 731.532949M918.081669 731.532949 918.081669 731.532949z" p-id="4977"></path></svg>