<?xml version="1.0" standalone="no"?><!DOCTYPE svg PUBLIC "-//W3C//DTD SVG 1.1//EN" "http://www.w3.org/Graphics/SVG/1.1/DTD/svg11.dtd"><svg t="1551409198911" class="icon" style="" viewBox="0 0 1024 1024" version="1.1" xmlns="http://www.w3.org/2000/svg" p-id="2090" xmlns:xlink="http://www.w3.org/1999/xlink" width="64" height="64"><defs><style type="text/css"></style></defs><path d="M1024 512c0 282.7776-229.2224 512-512 512S0 794.7776 0 512 229.2224 0 512 0s512 229.2224 512 512z m-512 360.2944c188.5184 0 341.3504-141.5168 341.3504-309.0944H179.2c0 167.5776 144.2816 309.0944 332.8 309.0944zM312.8832 436.1728c36.6592 0 66.3552-38.2464 66.3552-85.3504s-29.696-85.3504-66.3552-85.3504c-36.6592 0-66.3552 38.1952-66.3552 85.3504 0 47.104 29.696 85.3504 66.3552 85.3504z m398.2336 0c36.6592 0 66.3552-38.2464 66.3552-85.3504s-29.696-85.3504-66.3552-85.3504c-36.6592 0-66.3552 38.1952-66.3552 85.3504 0 47.104 29.696 85.3504 66.3552 85.3504z" p-id="2091"></path></svg>