<?xml version="1.0" standalone="no"?><!DOCTYPE svg PUBLIC "-//W3C//DTD SVG 1.1//EN" "http://www.w3.org/Graphics/SVG/1.1/DTD/svg11.dtd"><svg t="1550632837923" class="icon" style="" viewBox="0 0 1024 1024" version="1.1" xmlns="http://www.w3.org/2000/svg" p-id="11490" xmlns:xlink="http://www.w3.org/1999/xlink" width="64" height="64"><defs><style type="text/css"></style></defs><path d="M511.8208 15.46752C230.5792 15.46752 2.55488 243.49184 2.55488 524.73344c0 225.03424 145.90464 415.87712 348.27264 483.23072 25.46176 4.7104 34.82112-11.07456 34.82112-24.50944 0-12.16-0.512-52.26496-0.70144-94.78656-141.70112 30.81216-171.56096-60.09344-171.56096-60.09344-23.17312-58.88512-56.52992-74.54208-56.52992-74.54208-46.21824-31.63648 3.50208-30.93504 3.50208-30.93504 51.11808 3.56352 78.04416 52.4544 78.04416 52.4544 45.45024 77.85472 119.168 55.3216 148.1984 42.33216 4.5824-32.91136 17.76128-55.38304 32.33792-68.11648-113.12128-12.86144-232.03328-56.52992-232.03328-251.70432 0-55.57248 19.92704-101.02784 52.4544-136.67328-5.28384-12.86144-22.72768-64.6144 4.89984-134.76352 0 0 42.7776-13.68576 140.11392 52.1984 40.61184-11.26912 84.15744-16.93184 127.44192-17.1264 43.2896 0.18944 86.89152 5.85728 127.56992 17.1264 97.20832-65.88416 139.91936-52.1984 139.91936-52.1984 27.69408 70.15424 10.31168 121.96864 5.02784 134.76352 32.65536 35.65056 52.38784 81.1008 52.38784 136.67328 0 195.61984-119.168 238.65344-232.54528 251.25888 18.26816 15.79008 34.56512 46.78656 34.56512 94.27968 0 68.11648-0.57344 122.98752-0.57344 139.72992 0 13.55776 9.1648 29.40928 35.01056 24.44288 202.24-67.41504 347.9552-258.25792 347.9552-483.16416 0-281.2416-228.02432-509.26592-509.26592-509.26592l-0.04608 0.12288z" fill="" p-id="11491"></path></svg>