<?xml version="1.0" standalone="no"?><!DOCTYPE svg PUBLIC "-//W3C//DTD SVG 1.1//EN" "http://www.w3.org/Graphics/SVG/1.1/DTD/svg11.dtd"><svg t="1550631039676" class="icon" style="" viewBox="0 0 1024 1024" version="1.1" xmlns="http://www.w3.org/2000/svg" p-id="10629" xmlns:xlink="http://www.w3.org/1999/xlink" width="64" height="64"><defs><style type="text/css"></style></defs><path d="M932 442L560 84q-21-18-48-18.5T464 84L92 442q-12 11-12.5 25t9.5 26q11 11 25 12t26-9l372-359 372 359q12 10 26 9t25-12q10-12 9.5-26T932 442m-99 133q-15 0-25.5 10.5T797 611v277H654V648q-1-31-21-51t-51-21H442q-31 1-51 21t-21 51v240H227V611q0-15-10.5-25.5T191 575q-15 0-25.5 10.5T155 611v277q1 31 21 51t51 21h570q31-1 51-21t21-51V611q0-15-10.5-25.5T833 575m-391 73h140v240H442V648z" p-id="10630"></path></svg>