<?xml version="1.0" standalone="no"?><!DOCTYPE svg PUBLIC "-//W3C//DTD SVG 1.1//EN" "http://www.w3.org/Graphics/SVG/1.1/DTD/svg11.dtd"><svg t="1552544737056" class="icon" style="" viewBox="0 0 1024 1024" version="1.1" xmlns="http://www.w3.org/2000/svg" p-id="3392" xmlns:xlink="http://www.w3.org/1999/xlink" width="64" height="64"><defs><style type="text/css"></style></defs><path d="M150.631936 1017.7024a46.2336 46.2336 0 0 0 45.7728-46.7968v-378.1632c5.2736 4.352 10.9056 8.704 17.408 12.6464l629.4016 398.4384c71.2704 45.1072 129.5872 11.9808 129.5872-73.8816V92.672c0-85.7088-57.7024-117.76-128.2048-71.424L212.174336 438.7328c-5.632 3.7376-10.9056 7.8848-15.7696 12.032V53.0944c0-25.856-20.48-46.7456-45.7728-46.7456H96.974336A46.2336 46.2336 0 0 0 51.201536 53.0944v917.8112c0 25.9072 20.48 46.7968 45.7728 46.7968h53.6576z" p-id="3393"></path></svg>