<?xml version="1.0" standalone="no"?><!DOCTYPE svg PUBLIC "-//W3C//DTD SVG 1.1//EN" "http://www.w3.org/Graphics/SVG/1.1/DTD/svg11.dtd"><svg t="1550632697907" class="icon" style="" viewBox="0 0 1025 1024" version="1.1" xmlns="http://www.w3.org/2000/svg" p-id="11246" xmlns:xlink="http://www.w3.org/1999/xlink" width="64.0625" height="64"><defs><style type="text/css"></style></defs><path d="M803.661373 633.873428c-41.038594-40.734657-90.629367-72.947835-145.854736-93.744461 13.935029-9.360631 26.914244-20.02604 38.762652-31.823279 47.317902-47.089693 76.601213-112.183277 76.601213-184.027934 0-71.851821-29.282288-136.918797-76.601213-184.028958-47.316878-47.101974-112.686767-76.243039-184.861969-76.243039-72.202832 0-137.570674 29.141065-184.888576 76.243039-47.318925 47.110161-76.585863 112.176113-76.585863 184.028958 0 71.844658 29.266938 136.938241 76.585863 184.027934 11.849431 11.796216 24.830693 22.461625 38.749348 31.823279-55.239695 20.796626-104.818189 53.010827-145.828128 93.744461-74.852299 74.326294-121.161172 176.920732-121.161172 290.131457 0 19.557343 15.939782 35.42856 35.589227 35.42856 19.665819 0 35.603554-15.871217 35.603554-35.42856 0-93.797675 38.226413-178.67681 100.029909-240.023889 61.752328-61.318425 147.120626-99.311514 241.47603-99.437386l0.402179 0 0.027631 0 0.429809 0c94.31447 0.125873 179.670488 38.118961 241.4484 99.437386C815.391072 745.328075 853.614415 830.206186 853.614415 924.004885c0 19.557343 15.926478 35.42856 35.57797 35.42856 19.678099 0 35.60253-15.871217 35.60253-35.42856C924.794915 810.79416 878.500369 708.199722 803.661373 633.873428zM512.110522 513.680349l-0.404225 0-0.027631 0-0.402179 0c-52.376347-0.127919-99.801701-21.313421-134.128107-55.46995-34.406228-34.292636-55.738069-81.638168-55.738069-133.932646 0-52.295502 21.331841-99.641034 55.738069-133.911156 34.433859-34.259888 82.020903-55.483254 134.557917-55.483254 52.52371 0 100.097451 21.224389 134.530286 55.483254 34.406228 34.270122 55.739092 81.615654 55.739092 133.911156 0 52.294478-21.332864 99.640011-55.751373 133.932646C611.899943 492.366929 564.486869 513.55243 512.110522 513.680349z" p-id="11247"></path></svg>