<?xml version="1.0" standalone="no"?><!DOCTYPE svg PUBLIC "-//W3C//DTD SVG 1.1//EN" "http://www.w3.org/Graphics/SVG/1.1/DTD/svg11.dtd"><svg t="1552544690296" class="icon" style="" viewBox="0 0 1024 1024" version="1.1" xmlns="http://www.w3.org/2000/svg" p-id="2656" xmlns:xlink="http://www.w3.org/1999/xlink" width="64" height="64"><defs><style type="text/css"></style></defs><path d="M380.416 805.888c0 44.544-36.352 80.896-80.896 80.896-44.544 0-80.896-36.352-80.896-80.896V220.16c0-44.544 36.352-80.896 80.896-80.896 44.544 0 80.896 36.352 80.896 80.896v585.728zM801.28 805.888c0 44.544-36.352 80.896-80.896 80.896-44.544 0-80.896-36.352-80.896-80.896L640 220.16c0-44.544 36.352-80.896 80.896-80.896 44.544 0 80.896 36.352 80.896 80.896l-0.512 585.728z" p-id="2657"></path></svg>