<?xml version="1.0" standalone="no"?><!DOCTYPE svg PUBLIC "-//W3C//DTD SVG 1.1//EN" "http://www.w3.org/Graphics/SVG/1.1/DTD/svg11.dtd"><svg class="icon" width="64px" height="64.00px" viewBox="0 0 1024 1024" version="1.1" xmlns="http://www.w3.org/2000/svg"><path fill="#e0620d" d="M736.802358 393.191596a23.922233 23.922233 0 0 0-12.523048-4.174349C700.678181 105.000941 555.378714 18.784572 525.837165 4.174349a25.206648 25.206648 0 0 0-27.614926 0c-29.059893 14.289119-175.001568 100.505488-198.442145 385.324553a23.922233 23.922233 0 0 0-12.523048 4.013798c-187.203512 128.441518-96.331138 303.282534-96.331138 305.048604a24.082785 24.082785 0 0 0 18.302916 12.523048h3.050486a24.082785 24.082785 0 0 0 17.821261-7.867042l105.322044-115.597366-13.165255 59.564753a24.082785 24.082785 0 0 0 23.440577 29.220446H677.879812a24.082785 24.082785 0 0 0 23.440577-29.220446l-12.6836-59.564753 105.000941 115.436814a24.082785 24.082785 0 0 0 17.82126 7.867043h3.050486a24.082785 24.082785 0 0 0 18.62402-12.6836c0-1.766071 90.711822-176.928191-96.331138-305.048605z m-224.772656-341.493885a293.970524 293.970524 0 0 1 96.331138 105.482596h-192.662276a293.970524 293.970524 0 0 1 96.331138-105.482596z m-120.092819 152.845406a23.922233 23.922233 0 0 0 6.100972 0.963311h228.786454a23.922233 23.922233 0 0 0 5.458764 0c32.110379 74.335528 53.945437 180.781436 44.954531 330.89746H346.8218c-8.990906-151.079335 13.486359-257.525243 45.115083-331.860771zM221.912424 640.441518c-10.917529-44.793979-13.325807-125.23048 74.817184-195.070555 0 33.87645 0 70.321731 3.050486 109.335842z m316.768893-13.004704H376.202797l9.793666-44.312324h252.066478l9.793666 44.312324z m263.305111 13.004704l-78.028222-85.734713c2.889934-39.014111 3.853246-75.459392 3.050486-109.496394 88.464095 70.803387 85.895265 151.239887 75.138288 195.231107z"  /><path fill="#e0620d" d="M510.905839 477.802446a108.372531 108.372531 0 1 0-108.372531-108.372531 108.533082 108.533082 0 0 0 108.372531 108.372531z m0-168.579492a60.206961 60.206961 0 1 1-60.206962 60.206961 60.206961 60.206961 0 0 1 60.206962-60.206961zM364.964164 720.717466a24.082785 24.082785 0 0 0-24.082784 24.082785v144.496707a24.082785 24.082785 0 0 0 48.165569 0v-144.496707a24.082785 24.082785 0 0 0-24.082785-24.082785zM473.336695 771.130762a24.082785 24.082785 0 0 0-24.082785 24.082785v204.703668a24.082785 24.082785 0 0 0 48.165569 0V795.213547a24.082785 24.082785 0 0 0-24.082784-24.082785zM563.566861 813.355911a24.082785 24.082785 0 0 0-24.082784 24.082785v81.239259a24.082785 24.082785 0 0 0 48.165569 0v-81.239259a24.082785 24.082785 0 0 0-24.082785-24.082785zM662.948485 722.965193a24.082785 24.082785 0 0 0-24.082784 24.082784v246.607714a24.082785 24.082785 0 0 0 48.165569 0V747.047977a24.082785 24.082785 0 0 0-24.082785-24.082784z"  /></svg>