<?xml version="1.0" standalone="no"?><!DOCTYPE svg PUBLIC "-//W3C//DTD SVG 1.1//EN" "http://www.w3.org/Graphics/SVG/1.1/DTD/svg11.dtd"><svg t="1552544742322" class="icon" style="" viewBox="0 0 1024 1024" version="1.1" xmlns="http://www.w3.org/2000/svg" p-id="1120" xmlns:xlink="http://www.w3.org/1999/xlink" width="64" height="64"><defs><style type="text/css"></style></defs><path d="M936.71204805 10.20081249h-54.38557804c-25.58375199 0-46.32202927 20.74081018-46.32076281 46.32076283v374.4667983c-5.28746916-4.40221385-11.12711474-8.61445874-17.54426597-12.58860921l-636.83798383-394.53638487c-72.18693529-44.71995778-131.24828253-11.83253281-131.25081545 73.08738816v829.1853472c0 84.92118743 58.36606085 116.70425955 129.70193524 70.6355222l639.93701071-413.29518568c5.81304993-3.75252004 11.13851287-7.69754192 15.9941193-11.79707191v393.58020779c0 25.58375199 20.73321143 46.31822989 46.32202927 46.31822992h54.38557805c25.58375199 0 46.32076282-20.73574435 46.32202926-46.31822992v-908.74434427c0-25.58375199-20.74081018-46.31822989-46.32202926-46.31822989z" p-id="1121"></path></svg>