<?xml version="1.0" standalone="no"?><!DOCTYPE svg PUBLIC "-//W3C//DTD SVG 1.1//EN" "http://www.w3.org/Graphics/SVG/1.1/DTD/svg11.dtd"><svg t="1555098166582" class="icon" style="" viewBox="0 0 1152 1024" version="1.1" xmlns="http://www.w3.org/2000/svg" p-id="5654" xmlns:xlink="http://www.w3.org/1999/xlink" width="27" height="24"><defs><style type="text/css"></style></defs><path d="M1076.032 32H76.032a59.968 59.968 0 1 0 0 120h999.936a59.968 59.968 0 1 0 0-120zM708.032 448H379.904a59.968 59.968 0 1 0 0 120h328a60.032 60.032 0 0 0 0-120z m320 0h-109.888a59.968 59.968 0 1 0 0 120h109.888a60.032 60.032 0 0 0 0-120zM239.36 316.48L32.96 496.96a19.968 19.968 0 0 0 0 30.08l206.464 179.904A9.984 9.984 0 0 0 256 699.52V324.032a9.984 9.984 0 0 0-16.64-7.552z m836.608 555.52H76.032a59.968 59.968 0 1 0 0 120h999.936a59.968 59.968 0 1 0 0-120z" p-id="5655"></path></svg>