<?xml version="1.0" standalone="no"?><!DOCTYPE svg PUBLIC "-//W3C//DTD SVG 1.1//EN" "http://www.w3.org/Graphics/SVG/1.1/DTD/svg11.dtd"><svg t="1551930440957" class="icon" style="" viewBox="0 0 1024 1024" version="1.1" xmlns="http://www.w3.org/2000/svg" p-id="2055" xmlns:xlink="http://www.w3.org/1999/xlink" width="64" height="64"><defs><style type="text/css"></style></defs><path d="M512 816.802223c-168.341139 0-304.802223-136.483662-304.802223-304.802223 0-168.341139 136.461084-304.802223 304.802223-304.802223s304.802223 136.461084 304.802223 304.802223c0 168.318561-136.461084 304.802223-304.802223 304.802223z m-2.144905-560.203908c-143.392512 0-259.646338 116.231248-259.646337 259.62376 0 143.437668 116.253825 259.646338 259.646337 259.646338 143.41509 0 259.646338-116.186092 259.646338-259.646338 0-143.392512-116.231248-259.62376-259.646338-259.62376z m13.433876 424.736253h-22.577942a22.577942 22.577942 0 0 1-22.577943-22.577942v-22.577943a22.577942 22.577942 0 0 1 22.577943-22.577942h22.577942a22.577942 22.577942 0 0 1 22.577943 22.577942v22.577943a22.577942 22.577942 0 0 1-22.577943 22.577942z m0-112.889712h-22.577942a22.577942 22.577942 0 0 1-22.577943-22.577942v-180.62354a22.577942 22.577942 0 0 1 22.577943-22.577942h22.577942a22.577942 22.577942 0 0 1 22.577943 22.577942v180.62354a22.577942 22.577942 0 0 1-22.577943 22.577942z" fill="" p-id="2056"></path></svg>