<?xml version="1.0" standalone="no"?><!DOCTYPE svg PUBLIC "-//W3C//DTD SVG 1.1//EN" "http://www.w3.org/Graphics/SVG/1.1/DTD/svg11.dtd"><svg t="1550627370134" class="icon" style="" viewBox="0 0 1024 1024" version="1.1" xmlns="http://www.w3.org/2000/svg" p-id="5422" xmlns:xlink="http://www.w3.org/1999/xlink" width="64" height="64"><defs><style type="text/css"></style></defs><path d="M331.87449598 111.78879246l70.11497686 87.03588797q2.42149163 14.50926225-3.02194265 18.73210697-5.43359053 4.23268847-17.53120491 9.06582895-12.09761438 4.8331395-170.45922501 97.91291278-24.17554125 14.50926225-42.90764921 22.97463919-18.73210697 8.45553319-41.69690339 25.38628706-10.88686856 15.71016431-21.16344234 30.82972233-10.27657378 15.10971328-19.94285377 32.03062341-15.72000806 29.00868173-26.59703287 60.43885509-6.04388531 25.38628706 9.06582797 68.90423105 15.10971328 43.52778773 46.53988664 42.31704093 60.44869786-14.50926225 114.24321562-47.15018043 53.79451777-32.64091917 337.87681988-189.791784l21.76389337 2.42149162q-44.7286898 32.64091917-90.06767339 65.28183736-45.33898458 32.63107542-91.25873269 65.27199459-91.87887122 68.90423105-178.92460195 122.70859257-87.03588797 53.79451777-200.66880881 68.29393626-6.04388531 13.29851644-8.46537694 25.38628805t-6.05372808 27.80777869q-13.29851644 62.86034573 10.87702481 59.83840308 24.17554125-3.02194266 68.90423105-18.74195072 13.29851644-2.41164787 25.99658185-4.23268847 12.69806541-1.81119684 25.99658282-3.01209989 60.43885411 0 117.25531453 9.06582895 56.81646042 9.06582797 116.05441247 22.36434441 22.96479642 10.87702481 48.95153452 16.92091012 25.99658184 6.04388531 50.18196783 14.50926324 48.35108348 18.13165594 96.10171495 39.28525453 47.75063245 21.15359859 97.31246175 35.66286183 38.68480448 6.04388531 108.18948656-8.46537694 69.51452583-14.50926225 92.489166-20.55314756 37.47405867-8.46537694 76.75931321-22.37418816 39.28525552-13.90881122 55.00526357-25.98673908 15.72000806-12.08777063 12.68822166-26.58719011-3.02194266-14.50926225-30.21942656-29.61897553-27.19748489-15.11955703-55.60571461-16.32045909-28.4082307-1.21074581-163.80504492-4.23268946t-206.71269413-10.27657378q-18.14149969-2.42149163-53.19406673-9.67612275-35.06240981-7.25463113-58.01736249-12.08777062-8.46537694-2.41164787-15.72000806-5.43359053-7.25463113-3.02194266-15.7101653-4.23268847-43.51794398-6.04388531-87.04573073-10.27657378-43.51794398-4.23268847-87.03588797-9.06582896 18.13165594-21.76389338 50.17212408-35.06240981 32.03062439-13.29851644 51.37302614-22.96479642 95.50126491-54.40481255 186.76984036-111.821724 91.2784192-57.4267552 183.14744765-117.86560931 14.50926225-4.8331395 29.0185245-9.06582797 14.4994185-4.23268847 29.00868174-10.27657378 12.08777063-7.25463113 12.68822166-26.59703288 0.61029478-19.34240175-3.01209891-29.00868173-13.29851644-39.8955503-37.47405867-51.98332093-24.185385-12.08777063-61.65944367-10.87702481-112.42217503 26.58719011-222.43270219 62.85050199-110.01052716 36.27315563-217.59956269 77.37945173-19.34240175 7.24478738-41.70674616 17.52136214-22.36434441 10.27657378-32.64091917 16.3204591-10.27657378 6.04388531-19.34240175 13.29851643-9.06582797 7.25463113-19.94285376 10.8770258-7.25463113 2.42149163-14.4994185 0.6102938-7.24478738-1.81119684-14.49941949-3.02194266Q85.27609531 410.3606703 163.24615531 365.02168671q77.97005902-45.32914083 125.12024044-54.99542081 31.43017336-7.25463113 62.86034573-9.67612275 31.43017336-2.41164787 62.86034574-7.26447389 26.59703288-3.62239369 33.85166498-6.64433733 7.25463113-3.02194266 24.17554125-12.69806541l96.71201072 4.84298325q62.86034573-25.38628706 47.75063245-71.32572267-15.10971328-45.93943561-59.83840406-78.5803538-13.29851644-8.46537694-28.40822972-13.29851742t-29.61897651-8.46537694q-16.92091012 1.21074581-56.21600841 2.42149163-39.28525552 1.21074581-110.62082194-12.08777063v14.50926225z" fill="rgb(74, 183, 189)" p-id="5423"></path></svg>